<svg xmlns="http://www.w3.org/2000/svg" width="240" height="324" fill="none" id="bald-man"><path fill="#fff" fill-rule="evenodd" d="M127.586 126.83c6.154.304 15.737 2.943 16.217 4.63.748 2.634-.86 12.51 1.829 17.83 1.146 2.267 5.499 2.064 7.185 2.803 5.643 2.47 22.348 7.157 25.793 13.058 1.38 2.364 9.86 31.697 14.366 46.662a43.555 43.555 0 0 0 1.705 4.692l.23-1.122c1.837-9.045 2.756-14.521 2.756-16.427 0-2.979-2.375-15.545 0-18.741 2.351-3.164 8.017-5.751 10.567-5.802l.076-.001c1.674 0 3.126-.523 4.357-1.57l1.805-.908c9.181-4.609 14.546-7.137 16.092-7.585 2.469-.714 6.67.807 4.57 3.091-1.401 1.522-4.92 4.215-10.557 8.079l-2.126 1.689.257.134c2.747 1.447 4.362 2.665 4.846 3.654.498 1.019.259 2.224-.718 3.616l.148.145c1.235 1.212 1.853 2.026 1.853 2.44v2.022c1.228 1.8 1.536 3.301.921 4.504-.614 1.202-1.588 2.244-2.922 3.125-.982 2.586-2.153 4.426-3.511 5.521-1.357 1.096-3.704 2.007-7.04 2.735l-3.018 7.22-2.446 10.144-1.233 11.319.358.259c1.659 1.208 2.721 2.104 2.721 3.03 0 1.442-6.692 35.359-17.104 36.877-2.252.329-13.93-1.282-17.765-4.402l.057.337c.902 5.451.711 8.282-.573 8.493-15.779 2.588-60.592 3.387-134.44 2.399-.44-39.21 1.547-65.324 5.96-78.34 11.286-33.291 23.73-44.661 28.083-45.635 3.813-.853 17.036-6.118 20.732-7.515 2.413-.912 2.93-3.647 5.68-3.647l.222.001c2.659.027 5.017.502 6.342-.866 3.476-3.59 2.505-8.56 3.947-13.318.795-2.622 6.225-5.003 13.778-4.63Z" clip-rule="evenodd"></path><path fill="#000" fill-rule="evenodd" d="M110.677 136.23c.361-.716 1.32-.623 1.953-.298 1.898 1.387-.088 4.078-.613 5.772-1.35 3.285-3.696 6.495-6.934 8.031.269 3.266.573 6.524.685 9.8 4.14 5.137 11.119 7.012 17.315 8.454 9.731 2.692 20.714-2.824 23.998-12.446-3.738-2.125-4.948-7.688-3.832-11.57.097-.272.519-.393.669-.088 1.024 2.106.888 4.675 2.051 6.756 11.17 1.07 25.584 5.286 32.902 14.322 3.242 4.52 4.527 10.4 6.124 15.64 3.408 10.801 6.123 21.821 9.465 32.634l.394-2.046c1.08-5.636 2.061-11.348 1.332-17.079l-.013-.274c-.239-4.561-1.665-13.036 1.87-16.114 3.198-2.445 7.831-4.41 11.844-3.283 7.141-3.179 13.305-8.532 20.911-10.618 2.341-.481 5.709.089 5.155 3.266-1.533 5.556-7.955 7.713-12.344 10.578 2.814.763 6.244 4.186 4.045 7.171a.971.971 0 0 1-.052.125c1.782.79 2.032 2.777 1.595 4.48-.045.45-.163.064.101.472 2.012 1.898 1.123 7.188-1.908 7.367.199 2.507-1.411 4.942-3.45 6.309-2.197 1.473-5.374 1.537-7.194 3.553-4.271 7.534-5.744 16.429-6.21 25.056 2.816 1.055 5.342 4.207 2.784 6.882-.051.006-.101.012-.152.016-1.483 3.959-2.056 8.179-2.84 12.313-1.206 7.055-4.351 13.532-8.366 19.409-4.643 7.779-17.129 6.546-23.419 1.525.025 1.318.242 2.627-.179 3.9-.623 1.373-2.14.78-2.291-.573-3.325 1.871-4.108-4.304-.412-3.325-.284-4.464-.449-8.934-.582-13.405-4.185 1.355-4.366-5.591-.085-4.202l-.005-1.92c-.032-14.723.131-29.497 2.073-44.104.18-1.092.484-2.149.661-3.235.019-.113.195-.081.195.027.301 20.45-1.035 40.944.359 61.402 1.16.353 1.623 1.685 2.482 2.462 1.908 1.761 4.506 2.619 7.046 2.918 7.113.998 10.184-1.175 13.352-7.361-1.429.955-3.359-.731-2.488-2.243l.027-.046c.904-1.602 3.458-.642 3.135 1.152 3.185-5.102 4.852-10.855 6.083-16.692l.166-.698c.599-2.478 1.375-5.318 2.812-7.56-8.763-2.234-17.336-9.042-18.708-18.382-2.225 6.993-5.239 13.829-8.112 20.631-.887 2.365-1.257 4.907-2.529 7.101-.296.508-1.046.377-1.213-.158-1.144-5.116 2.322-9.982 4.122-14.588 1.469-2.603 5.688-14.488 8.303-14.517-2.939-12.886-6.858-25.675-10.591-38.4-3.61-17.182-10.966-20.496-26.548-25.906 2.81 14.329 15.643 28.199 8.814 43.228l-.166.39c-.698 1.657-1.278 3.326-.791 5.145.474 1.765 1.551 3.297 2.413 4.884 4.819 8.966 1.502 19.437-.361 28.774-2.354 10.949-4.679 21.909-7.111 32.841-.48 2.181-.791 4.428-1.515 6.542-.374 1.09-2.24.987-2.119-.286.23-2.468.923-4.876 1.43-7.3 3.03-15.695 7.128-31.205 9.735-46.968 1.676-11.669-4.924-13.462-4.677-21.002.897-3.856 3.271-7.297 3.135-11.407.528-12.578-8.631-22.956-9.762-35.19l-1.997-.712c-.997-.357-1.994-.718-2.988-1.086 5.23 36.59 3.642 73.979 1.028 110.75-.534 1.696-.026 13.549-2.266 12.497-.113.662-.464 1.313-1.229 1.31-6.944.064-13.891.174-20.835.256-3.341-.308-7.932.968-10.773-.96-3.28-.936-3.658-9.824-4.535-12.991l-.341-2.304c-5.575-37.644-10.563-76.063-6.556-114.08-5.575.215-6.725 6.233-7.139 10.615-1.033 9.672-7.28 18.002-7.58 27.785a16.585 16.585 0 0 0 1.371 6.852c2.516 5.339 6.868 11.511 3.616 17.474-3.847 4.642-3.514 5.864-2.102 11.601 3.97 18.965 10.566 37.197 16.839 55.482-1.363 7.107-9.562-19.277-10.333-21.266-3.63 1.825-5.612-4.233-1.449-4.665-2.674-8.953-5.135-17.973-7.183-27.093l-.054-.257c-.905-4.213-2.685-9.147.32-12.885 7.751-7.841-5.12-16.605-3.496-26.104-1.402 1.04-3.525-.054-3.493-1.8-.063-1.967 2.577-2.974 3.848-1.474 1.306-7.706 5.851-14.434 7.226-22.118l.063-.361c.466-2.715.597-5.573 1.93-8.048-1.815 1.18-3.748 2.133-5.736 2.974 3.555 2.97-3.328 5.681-2.759 1.093-19.493 5.641-23.9 13.509-31.056 31.577 1.337-1.299 3.627.383 2.827 2.04-.639 1.746-3.424 1.235-3.423-.626l-.326.779c-4.34 10.381-8.29 21.014-10.275 32.124 3.894-.55 2.902 5.676-.626 3.921-1.416 9.881-1.438 19.901-1.265 29.861 3.284-1.723 3.383 4.132.032 2.463.122 8.162.302 16.325.437 24.487.027 1.737-2.652 1.729-2.694 0-.313-12.542-.883-25.106-.612-37.652-.255-21.775 6.002-42.762 15.326-62.267 8.249-22.459 19.644-25.013 40.609-31.543 1.935-2.874 6.069-5.592 9.443-3.787 1.887-3.048 2.846-6.659 4.242-9.906Zm-35.92 78.275c.079-.277.474-.207.487.066.175 3.523.019 7.069-.222 10.607-.146 2.16-.326 4.318-.478 6.463a616.932 616.932 0 0 0-.976 16.997 2.399 2.399 0 0 1 2.549.468l.06.059a1.8 1.8 0 0 1 .5.773c.137.265.208.549.207.852l-.001.076a2.42 2.42 0 0 1-1.191 2.079 2.4 2.4 0 0 1-1.215.328c-.047.004-.093.009-.14.011a1.777 1.777 0 0 1-.904-.201l-.042-.013a587.397 587.397 0 0 0-.256 8.634c-.057 2.509-.133 5.017-.184 7.526l-.023 1.255-.046 2.773c-.015 1.141-.008 2.233-.395 3.309l-.047.124c-.279.718-.496 1.718-1.242 2.117-.596.319-1.399.201-1.741-.42-.287-.52-.038-1.268.387-1.619-.009-.023-.021-.044-.032-.068-.066-.19-.165-.37-.224-.562-.186-.609-.135-1.257-.137-1.89 0-1.115.038-2.231.067-3.345.066-2.372.142-4.741.235-7.11.314-7.948.905-15.895 1.582-23.821l.23-2.675c.306-3.557.623-7.118 1.072-10.657.02-.169.042-.338.065-.508a2.358 2.358 0 0 1-.642-.473c-.712-.747-1.144-1.865-1.549-2.828l-.093-.219c-.44-1.028-.845-2.067-1.054-3.171l-.02-.101c-.095-.47-.284-1.303.215-1.53.26-.119.424-.034.509.226a.122.122 0 0 1-.017.101c.205.315.526.609.729.901l.694.993.343.499c.435.64.9 1.253 1.38 1.858.377-2.655.84-5.299 1.56-7.884Zm28.467 59.155c.868-.681 2.282-.311 2.282.945 0 1.261-1.416 1.625-2.282.944l-.043-.032-.041-.033c-.472-.369-.488-1.329-.036-1.729l.036-.029c.027-.024.055-.045.084-.066Zm-37.826-2.453.075.001c.393 0 .758.1 1.098.298.148.112.294.226.442.341.27.27.456.591.56.961l.078.579c.01.3-.05.579-.188.84-.089.27-.239.504-.45.701a1.608 1.608 0 0 1-.701.45c-.239.126-.493.19-.765.19l-.074-.001c-.395 0-.76-.1-1.1-.299-.149-.112-.295-.226-.443-.34a2.176 2.176 0 0 1-.56-.962c-.025-.192-.05-.386-.078-.579-.01-.3.053-.579.188-.839.09-.27.24-.505.45-.701a1.62 1.62 0 0 1 .702-.451c.238-.125.494-.189.766-.189Zm98.897-4.019.554.074c.53.121.957.512 1.242.958.152.239.234.497.247.773.062.275.049.552-.038.829-.063.27-.188.507-.372.708a1.48 1.48 0 0 1-.221.271c-.174.289-.436.479-.706.674a1.478 1.478 0 0 1-.742.236 1.014 1.014 0 0 1-.53 0 1.48 1.48 0 0 1-.74-.236l-.403-.313a5.48 5.48 0 0 1-.332-.427l-.204-.484c-.125-.387-.064-.729.004-1.116a.967.967 0 0 1 .05-.188l.046-.123c.122-.321.187-.43.402-.71l.082-.11c.041-.054.084-.108.132-.156.135-.14.327-.256.479-.376a2.097 2.097 0 0 1 1.05-.284Zm-71.728-1.353.07.001c.307.002.594.078.86.232l.347.269c.21.213.357.462.44.752.018.152.04.304.06.455.009.234-.04.454-.147.659a1.273 1.273 0 0 1-.353.549 1.294 1.294 0 0 1-.55.353 1.272 1.272 0 0 1-.593.148l-.064-.002c-.308 0-.596-.078-.862-.232l-.346-.267a1.72 1.72 0 0 1-.44-.754c-.019-.152-.04-.302-.06-.454-.01-.235.04-.455.147-.658.07-.211.186-.395.353-.549.154-.167.338-.286.55-.353.184-.097.378-.146.588-.149Zm-13.943-.699c.442-.004.89.121 1.25.376.352.25.618.518.789.922.046.11.093.218.133.328.182.484.215.97-.036 1.443-.243.459-.767.659-1.236.797-.397.118-.847.137-1.242-.004a3.024 3.024 0 0 1-.566-.252c-.332-.205-.511-.448-.733-.748a1.87 1.87 0 0 1-.26-.96c0-.344.086-.663.26-.961.34-.581.97-.937 1.641-.941Zm-22.394.408c.558 0 1.048.258 1.384.693.34.442.464.992.314 1.539-.158.579-.637 1.086-1.231 1.232-.44.108-.799.104-1.236.03-.37-.064-.653-.284-.936-.512-.323-.264-.423-.746-.37-1.135.05-.389.23-.642.503-.873l.002-.006-.101.078c.038-.033.076-.069.114-.105.012-.021.023-.045.033-.068a1.766 1.766 0 0 1 1.524-.873Zm130.054-6.402c.306-.082.615-.082.921 0 .226.053.422.157.59.311.169.11.307.251.411.427l.034.059c.241.41.279.879.175 1.336-.128.564-.648 1.078-1.21 1.211l-.019.003-.019.005a1.286 1.286 0 0 1-.687.03 1.262 1.262 0 0 1-.64-.205 2.07 2.07 0 0 1-.619-.617 1.285 1.285 0 0 1-.205-.643.881.881 0 0 1 0-.456c.011-.231.078-.444.205-.643l.27-.349.028-.023c.216-.215.471-.363.765-.446Zm-21.271-11.184c2.77 0 2.766 4.299 0 4.299-2.769 0-2.765-4.299 0-4.299Zm-101.404-.543a1.65 1.65 0 0 1 .873.038c.175.074.348.148.522.219l.443.343c.083.07.123.146.199.245l.095.124c.137.184.14.223.291.616a2.133 2.133 0 0 1-.525 2.048l-.06.061a1.655 1.655 0 0 1-.703.452c-.171.1-.355.148-.552.148a1.65 1.65 0 0 1-.872-.038l-.522-.22-.444-.342-.342-.444-.109-.26-.11-.262-.079-.581c-.01-.302.05-.581.188-.843.053-.184.146-.347.281-.482.097-.165.228-.296.393-.393.135-.136.298-.229.482-.281.171-.1.355-.148.551-.148Zm136.99-3.071c.231-.009.446.04.645.145a1.5 1.5 0 0 1 .202.087c.256.15.459.353.609.607.122.194.19.403.201.629.045.204.041.41-.014.614l-.018.061a1.638 1.638 0 0 1-.241.511 1.66 1.66 0 0 1-.562.546 1.688 1.688 0 0 1-.834.226c-.598 0-1.114-.324-1.429-.821-.044-.069-.069-.158-.101-.23-.027-.068-.072-.154-.095-.232-.08-.3-.08-.6 0-.901.053-.22.152-.412.302-.575a1.3 1.3 0 0 1 .475-.435c.244-.142.506-.218.784-.231l.076-.001Zm-116.94-2.103c.292-.08.583-.086.873-.019l.073.019c.232.055.433.16.606.317.192.127.347.294.459.5a1.787 1.787 0 0 1 0 1.797c-.159.269-.372.48-.64.638l-.233.112a1.253 1.253 0 0 1-.625.199.85.85 0 0 1-.448 0 .83.83 0 0 1-.425-.114.828.828 0 0 1-.372-.218 1.25 1.25 0 0 1-.433-.471l-.17-.404-.06-.448.06-.446.092-.22a1.777 1.777 0 0 1 1.242-1.242Zm104.771-3.566c.309-.097.615-.11.921-.042.207 0 .402.053.581.159.197.054.366.151.51.295.251.163.447.379.593.647l.232.552c.14.357.089.883.005 1.243-.07.295-.205.553-.406.773a1.132 1.132 0 0 1-.408.408 1.701 1.701 0 0 1-.677.38l-.07.019-.026.007c-.004.002-.008.002-.012.002-.003.002-.007.002-.009.002-.101.025-.205.04-.313.044a1.751 1.751 0 0 1-.921-.042 175.55 175.55 0 0 1-.549-.232 73.168 73.168 0 0 1-.467-.36l-.361-.467a1.702 1.702 0 0 1-.273-.858 1.16 1.16 0 0 1 0-.613c0-.209.053-.401.156-.581a1.73 1.73 0 0 1 .478-.744c.156-.121.311-.241.467-.359l.549-.233Zm-134.746-7.566c.319-.087.638-.087.957 0l.429.18c.211.114.378.268.505.464.16.174.268.379.323.613.125.322.11.831.01 1.159a2.236 2.236 0 0 1-.553.946c-.446.461-1.13.594-1.736.455a1.514 1.514 0 0 1-.47-.203c-.458-.283-.766-.778-.764-1.325 0-.059.004-.119.012-.178-.03-.12-.04-.245-.035-.376l.063-.478.004-.012a1.785 1.785 0 0 1 1.176-1.224l.068-.021h.011Zm159.42-47.459c-.577-4.733-2.747-9.826-9.365-7.046l-.492.184c-1.637.62-3.546 1.435-4.542 2.868-.687.987-.455 2.899-.55 4.051-.431 3.745-.2 7.485.25 11.215.58 8.741-1.257 17.798-4.915 25.742 3.661 5.925 8.56 11.452 15.243 13.921.283-6.736 1.601-13.35 3.005-19.923l.055-.287c.561-2.964.842-6.007 2.788-8.472 3.959-4.299 9.404-1.866 12.009-8.773-.548-.277-.245-1.224.414-1.042 2.285.406 2.656-3.831 1.092-4.852-1.629-.994.011-2.828-.682-4.152-.387-.57-1.222-.589-1.6-1.247-1.003-2.419 4.015-3.97-1.886-6.698-1.208-.43-2.558-.163-3.776-.168-1.792.167-3.216 1.431-4.855 1.828 1.785 4.622-2.718 9.073-6.781 5.381-2.212 2.091-4.685 6.857.691 4.635 2.631-1.756 4.896-4.027 7.95-5.109l.064-.02c1.134-.371 6.095-2.783 5.849-.696-1.858 1.795-4.923 1.773-7.075 3.23-2.984 1.38-4.892 4.725-8.464 4.679-.823 5.002 4.851 1.958 6.964.579l.585-.318c2.981-1.611 6.006-3.103 9.481-3.123.96-.006.955 1.473 0 1.486-4.529.028-8.216 2.861-12.01 4.967-.374 2.919 3.901 1.641 5.522 1.21 1.701-.239 4.432-2.079 5.92-1.107.582 1.496-1.979 1.385-2.871 1.839 4.072 1.956.504 3.188-.587.182l-.32.109c-2.726.916-9.338 2.803-8.551-1.817-.998.442-2.215.706-3.317.461-2.75 4.068-7.136 2.494-.761-.279-1.436-.669-1.916-3.25-.536-4.21-5.019-.307-1.293-5.574.784-7.329a12.653 12.653 0 0 1-.563-.605c-1.198.57-2.456.917-3.803 1.039-1.288.117-1.575-2.077-.304-2.257 1.363-.192 2.618-.556 3.818-1.241 1.819-.785 2.439 2.591 4.259 2.71.993.197 1.665-.674 1.863-1.545Zm-42.249 43.557c.44 0 .83.184 1.149.476.319.291.457.729.476 1.147.008.224-.038.434-.14.628a1.213 1.213 0 0 1-.336.522 1.681 1.681 0 0 1-1.149.476c-.439 0-.83-.184-1.149-.476-.319-.294-.456-.729-.476-1.15a1.24 1.24 0 0 1 .14-.625c.059-.181.155-.341.29-.478l.046-.044a1.674 1.674 0 0 1 1.149-.476Zm13.316-10.023.07.001c.372.002.716.095 1.037.281.14.108.279.214.417.322a2.055 2.055 0 0 1 .528 2.001 1.426 1.426 0 0 1-.235.588 2.05 2.05 0 0 1-.727.724 2.006 2.006 0 0 1-1.02.277 2.02 2.02 0 0 1-1.745-1.001 1.403 1.403 0 0 1-.237-.588 2.048 2.048 0 0 1 .475-1.946l.053-.055c.186-.201.406-.343.662-.426a1.54 1.54 0 0 1 .722-.178Zm-101.62.113a.882.882 0 0 1 .467 0c.233.011.45.08.651.207.118.093.237.184.355.275l.103.124c.22.269.226.314.395.724.07.228.08.456.03.684 0 .155-.04.298-.116.431a.85.85 0 0 1-.222.379.856.856 0 0 1-.306.308c-.165.15-.36.254-.583.307l-.455.061c-.059-.008-.12-.017-.18-.023a1.296 1.296 0 0 1-.207-.023l-.07-.015-.062-.017a1.3 1.3 0 0 1-.241-.097.894.894 0 0 1-.387-.226 1.325 1.325 0 0 1-.452-.493l-.03-.068a1.206 1.206 0 0 1-.099-.226.836.836 0 0 1-.11-.408 1.225 1.225 0 0 1 .011-.578l.019-.064.163-.387c.084-.131.173-.264.287-.372.068-.061.236-.192.33-.257l.058-.039c.201-.127.419-.196.651-.207Zm-25.47-3.022c.304-1.199 1.876-1.577 2.732-.721.855.856.477 2.429-.72 2.733l-.138.034a1.569 1.569 0 0 1-1.908-1.911l.034-.135ZM202.09 204.5c-.009-.119.144-.161.22-.091 1.018.913 1.667 2.008 2.902 2.716 1.243.71 2.523.653 3.818 1.111a.47.47 0 0 1 0 .899c-2.451.856-6.754-2.046-6.94-4.635Zm-115.151-.186c.272-.085.547-.097.82-.036.185 0 .358.046.517.139.175.049.325.138.454.264.154.092.277.216.37.37.182.199.304.432.367.698l.072.547-.072.548c-.07.162-.14.327-.207.49l-.189.256c-.152.204-.177.206-.548.482-.237.15-.492.232-.765.243-.181.05-.363.05-.547 0-.184 0-.357-.047-.517-.14a1.032 1.032 0 0 1-.455-.264 1.563 1.563 0 0 1-.528-.577c-.07-.163-.14-.328-.207-.49l-.074-.548.074-.547.004-.017c.097-.342.27-.64.52-.892l.41-.317c.16-.103.327-.156.5-.209Zm98.622.41a1.717 1.717 0 0 1 1.656.437c.429.43.598 1.07.437 1.655a1.713 1.713 0 0 1-1.709 1.252 1.66 1.66 0 0 1-.824-.224l-.329-.256a1.217 1.217 0 0 1-.339-.526 1.219 1.219 0 0 1-.141-.63l-.002-.04a.607.607 0 0 1 .029-.239c0-.083.013-.163.034-.241a1.713 1.713 0 0 1 1.188-1.188Zm-126.161-5.723c.188-.007.363.031.526.118a.99.99 0 0 1 .44.283c.134.123.227.271.282.44.087.163.125.338.119.526 0 .247-.064.478-.186.689l-.216.277c-.169.171-.37.287-.602.353l-.135.046a1.234 1.234 0 0 1-.6.049 1.222 1.222 0 0 1-.596-.224 1.138 1.138 0 0 1-.412-.412l-.116-.275a1.898 1.898 0 0 1-.042-.33c0-.015 0-.027-.002-.042 0-.082.025-.283.046-.366.047-.173.141-.338.25-.477.092-.146.22-.26.375-.345l.014-.01.016-.011c.048-.034.1-.068.15-.104.211-.122.442-.185.689-.185Zm109.096-1.501c.338 0 .653.087.945.256l.029.013a1.854 1.854 0 0 1 0 3.204c-.009.006-.019.01-.029.014a1.869 1.869 0 0 1-1.887 0 1.885 1.885 0 0 1-.928-1.616 1.878 1.878 0 0 1 1.87-1.871Zm-87.735-2.444.057-.001a1.2 1.2 0 0 1 .625.141c.201.066.376.178.525.336l.308.258.09.073.043.037c.207.209.349.454.429.738.025.163.046.323.063.486.046.422-.203.856-.477 1.156-.148.159-.324.27-.526.338a1.229 1.229 0 0 1-.63.139c-.459-.04-.893-.137-1.223-.492-.038-.042-.074-.087-.112-.131l-.264-.304c-.2-.203-.34-.442-.416-.717-.022-.146-.04-.289-.06-.433-.019-.433.193-.839.476-1.148.261-.285.705-.46 1.092-.476Zm-10.665-4.45c2.197 0 2.193 3.409 0 3.409-2.195 0-2.19-3.409 0-3.409Zm110.468-4.78.069.001c.364.002.704.093 1.019.277l.409.315c.25.254.423.549.52.892.023.179.047.359.072.537.011.279-.049.539-.175.78-.08.249-.22.466-.417.65a1.496 1.496 0 0 1-.65.417 1.514 1.514 0 0 1-.778.175 2.008 2.008 0 0 1-1.02-.277c-.137-.105-.272-.211-.41-.315a2.027 2.027 0 0 1-.494-.813l-.023-.078-.074-.539a1.514 1.514 0 0 1 .175-.778c.08-.252.22-.467.416-.651.184-.197.402-.336.651-.416.221-.117.457-.176.71-.177Zm-9.896-6.382c.196-.006.378.034.549.123.176.057.328.156.457.294.272.217.439.653.439 1.006s-.167.788-.439 1.006a1.43 1.43 0 0 1-.628.365l-.378.051c-.368.017-.742-.175-1.004-.416a6.995 6.995 0 0 0-.156-.144c-.238-.22-.342-.548-.357-.862a.924.924 0 0 1 .106-.469.913.913 0 0 1 .251-.394c.053-.046.104-.095.156-.143a1.536 1.536 0 0 1 1.004-.417Zm62.7-11.368c1.388-1.692.58-2.896-1.506-2.477-3.594.486-6.976 2.758-10.141 4.387-3.455 1.825-7.015 3.331-10.539 5.046 1.454.893 2.536 2.291 3.362 3.886 1.649-1.253 3.757-1.852 5.814-1.93 3.733-3.576 9.915-4.395 13.01-8.912Zm-164.01 5.616c.376.001.728.09 1.059.267l.07.039.452.351c.22.203.374.443.465.72.14.267.203.556.192.865a1.7 1.7 0 0 1-.192.862 1.67 1.67 0 0 1-.465.721 1.317 1.317 0 0 1-.477.383c-.18.073-.357.149-.537.225-.2.064-.433.072-.65.083a2.192 2.192 0 0 1-1.106-.3l-.443-.342a1.652 1.652 0 0 1-.454-.707 1.634 1.634 0 0 1-.19-.77l.002-.075c0-.017 0-.036.002-.055.025-.199.053-.397.08-.596.07-.292.203-.547.401-.763a.717.717 0 0 1 .206-.251c.278-.279.608-.47.988-.578.199-.025.397-.052.596-.079Zm98.026-5.6.064.001c.286 0 .55.072.795.213l.319.247c.196.197.332.429.405.696l.058.418c.006.218-.039.419-.138.607a1.186 1.186 0 0 1-.325.507 1.174 1.174 0 0 1-.507.326 1.178 1.178 0 0 1-.607.135c-.283 0-.549-.072-.794-.216-.106-.08-.213-.163-.319-.245a1.57 1.57 0 0 1-.384-.629l-.02-.066-.056-.419a1.161 1.161 0 0 1 .135-.606c.063-.197.173-.366.325-.508.144-.154.313-.262.507-.325.169-.089.35-.134.542-.136Zm-85.678-2.289.073.001c.42.002.812.107 1.175.319.156.12.313.241.469.364.29.289.488.631.6 1.027l.082.617c.013.321-.055.619-.2.896-.093.29-.254.539-.482.75a1.724 1.724 0 0 1-.748.48 1.735 1.735 0 0 1-.896.201c-.42 0-.81-.106-1.174-.317l-.471-.364a2.361 2.361 0 0 1-.598-1.027l-.083-.619a1.746 1.746 0 0 1 .201-.896c.093-.288.253-.539.48-.748.211-.229.46-.39.75-.483.255-.134.529-.2.822-.201Zm78.228-5.811c.192-.051.384-.051.576 0 .287.012.556.099.805.257l.438.339a2.145 2.145 0 0 1 .568.963l.076.569c.01.294-.051.568-.184.822-.079.244-.21.456-.391.64l-.069.068a1.621 1.621 0 0 1-.696.448c-.169.1-.353.148-.547.148a1.63 1.63 0 0 1-.864-.038c-.171-.074-.344-.146-.517-.218l-.056-.031c-.652-.357-1.056-1.106-1.056-1.839 0-.734.404-1.484 1.056-1.841.02-.008.036-.019.056-.03.249-.158.517-.245.805-.257Z" clip-rule="evenodd"></path><path fill="#fff" fill-rule="evenodd" d="M162.856 78.64c-7.433-19.562-20.831-33.884-43.418-24.888-.648-.442-1.493-.56-2.303-.043-12.304 7.729-21.165 20.12-25.005 34.093-2.336.444-4.607 1.22-6.635 2.49-4.408 2.763-7.374 7.16-10.154 11.442-.836 1.287-.061 3.419 1.51 3.711.682.127 1.358.203 2.03.223a8.662 8.662 0 0 1-.653 1.696c-.994 1.907.884 3.932 2.643 3.41.195.104.4.189.611.252.024 1.081.58 2.527 1.678 2.745 1.776.382 4.137-.978 3.718-2.966a5.331 5.331 0 0 0 1.592.041c.058 1.035.04 2.115.183 3.07.467 4.499 4.96 7.521 9.246 6.152.263 1.402.572 3.372 1.952 4.133 1.613 4.528 4.4 9.696 8.964 11.76-.407 1.041-.186 2.308 1.037 3.005 8.354 4.764 18.381 6.376 27.825 4.605 3.775-.225 7.452-1.078 10.982-2.896 2.574-1.326 4.941-3.009 7.251-4.744 2.311-1.736 4.782-3.427 6.627-5.681 2.004-2.448 2.936-5.328 3.542-8.394 2.773-13.915 1.815-27.578-3.223-40.834-6.237-16.408 6.235 14.027 0-2.382Z" clip-rule="evenodd"></path><path fill="#000" fill-rule="evenodd" d="M126.923 49.94c3.804-.269 7.677.373 11.299 1.52 5.778 1.83 11.084 5.058 15.443 9.261 4.492 4.332 7.815 9.672 9.835 15.57 2.437 7.115 2.801 14.71 3.487 22.136.346 3.752.917 7.446 1.511 11.162l.094.587c.579 3.62.905 7.281.105 10.895-1.332 6.007-5.323 11.106-10.061 14.874-9.732 7.74-24.883 12.459-36.215 5.337-1.753-1.102-.092-3.92 1.62-2.772 1.204.808 2.48 1.517 3.849 2.006 5.717 2.044 11.996 1.316 17.647-.585 5.568-1.874 10.911-5.04 15.02-9.264 4.316-4.437 6.707-9.918 6.362-16.155-.206-3.711-1.051-7.353-1.52-11.033-.416-3.26-.665-6.537-.952-9.81l-.105-1.177c-.609-6.669-1.483-13.52-4.516-19.573-2.551-5.092-6.287-9.622-10.778-13.12-4.703-3.664-10.319-6.225-16.212-7.181-6.93-1.124-13.564.92-19.345 4.723-5.127 3.373-9.535 7.88-12.915 12.995-1.639 2.48-3.035 5.129-4.24 7.845-1.137 2.559-1.92 5.241-2.834 7.879.752-.023 1.516.006 2.292.092 3.982.441 7.691 2.505 10.052 5.76 2.886 3.977 2.106 8.859 3.233 13.382a.813.813 0 0 1-.362.889c-1.709 1.105-3.996 1.141-5.65-.103-1.435-1.08-2.109-3.032-1.528-4.738.076-.222.399-.183.408.056.11 2.903 2.802 5.138 5.441 3.757-1.132-3.9-.536-8.256-2.852-11.779-4.098-6.235-12.578-6.492-18.534-2.978-3.135 1.85-5.616 4.63-7.464 7.741l-.532.903c-.708 1.207-1.458 2.572-1.605 3.9-.085.767.198 1.488 1.077 1.101.712-.312 1.263-1.041 1.685-1.668.72-1.068 2.377-.145 1.781.993l-.02.037c-.866 1.536-1.4 3.227-1.497 4.99l-.025.488c-.017.356-.028.862.047.88.09.022.717-.701.821-.802.503-.483 1.02-.878 1.72-1.006.921-.169 1.85.97 1.05 1.717l-.033.03c-.713.619-.68 1.856.106 2.435 1.112.819 2.48-.517 2.641-1.616l.006-.041c.142-1.188 1.792-1.23 1.881 0 .195 2.669-2.982 4.907-5.4 3.56-.955-.532-1.563-1.507-1.753-2.551a2.6 2.6 0 0 1-.982.304c-1.133.1-1.938-.697-2.121-1.766-.214-1.246-.087-2.58.24-3.874a2.521 2.521 0 0 1-1.912-.284c-1.968-1.136-1.403-3.663-.66-5.369 3.172-7.282 9.745-13.89 17.887-14.414.044-1.284.219-2.5.503-3.786 2.785-12.583 11.807-24.235 23.553-29.681 3.138-1.456 6.467-2.435 9.927-2.68Zm-30.802 50.267.112-.026c1.269-.273 4.608-.594 4.206 1.542-.019.1-.165.088-.191 0-.395-1.343-3.073-.269-3.855.054a11.298 11.298 0 0 0-3.02 1.867c-1.928 1.673-3.22 4.031-3.416 6.591-.195 2.541.542 5.284 2.374 7.122.897.9 2.044 1.512 3.331 1.557 1.157.04 2.435-.861 3.502-.333.21.104.377.389.358.624a1.56 1.56 0 0 1-.531 1.06c1.787 3.258 3.249 6.706 5.529 9.668 1.144 1.486 2.44 2.863 3.907 4.034a15.762 15.762 0 0 0 2.238 1.476c.917.504 1.71.819 2.364 1.673.558.728 0 2.136-.92 2.261-2.165.295-4.269-1.456-5.859-2.768-1.588-1.311-2.96-2.927-4.095-4.643-2.178-3.294-3.668-7.181-4.264-11.112-.691.219-1.47.286-2.056.287-1.559.004-3.047-.557-4.272-1.505-4.484-3.47-4.983-10.594-1.818-15.086 1.514-2.15 3.815-3.738 6.376-4.343Zm.028 8.262c1.04-.091 2.079.073 3.056.427l.403.147c.851.311 1.757.677 2.372 1.315.939.976.004 2.666-1.334 2.292-1.479-.413-2.681-1.659-4.16-2.182-1.321-.467-2.819-.401-3.991.404-.155.106-.359-.104-.258-.258.898-1.367 2.314-2.005 3.912-2.145Z" clip-rule="evenodd"></path><path fill="#000" fill-rule="evenodd" d="M138.835 118.841c1.181-1.945 3.701 2.819 3.968 3.638.237.726.394 1.469.473 2.221a6.874 6.874 0 0 0 2.807.026c1.395-.268 2.248-1.018 3.461-1.662.837-.446 1.893.076 2.329.815.512.869.186 1.771-.488 2.419-1.278 1.229-3.793 1.511-5.461 1.185a7.05 7.05 0 0 1-2.605-1.067c-.005.098-.009.195-.016.292l-.015.168c-.128 1.363-.503 3.077-1.561 3.964-1.735 1.454-3.877-1.343-2.191-2.796l.053-.044c1.048-.847 1.276-3.12 1.22-4.372a9.055 9.055 0 0 0-.444-2.423l-.053-.155c-.077-.22-.924-2.306-1.23-2.04l-.014.015c-.126.151-.33-.025-.233-.184Zm9.436-10.975c1.595.971 4.026 3.233 2.31 5.638-2.02 2.12-4.929-.311-6.362-1.411-1.329-.852-2.822 1.34-1.589 2.335 10.357 7.671 14.56-6.308 6.448-7.702-.893-.154-1.225.84-.807 1.14ZM131.235 98.9c1.56-.277 3.157.11 4.447 1.023l.098.07c1.243.91 2.633 2.507 1.92 4.074-.286.63-1.143.728-1.687.443-.906-.475-1.07-1.644-1.878-2.291-.663-.53-1.556-.852-2.409-.774-2.005.182-3.239 2.16-3.861 3.865-.08.218-.4.303-.525.069-1.469-2.746 1.131-5.989 3.895-6.48Zm24.974-1.037c2.987-.246 6.483 2.852 5.696 6.005-.377 1.514-2.621 1.47-3.019 0-.22-.809-.198-1.524-.78-2.196-.48-.554-1.163-.877-1.897-.827-.808.054-1.554.459-2.121 1.027-.512.513-.818 1.264-1.349 1.718-.13.112-.305.119-.434 0-.912-.841-.365-2.594.214-3.473.828-1.257 2.177-2.129 3.69-2.254Zm-30.661-4.557c1.916-1.697 5.397-3.335 7.981-2.5 1.485.48 2.133 2.874.475 3.633-1.921.879-4.135.521-6.089 1.432-.821.383-1.593.861-2.164 1.563-.45.553-.908 1.28-1.56 1.599-.171.084-.402.086-.54-.07-1.427-1.615.651-4.553 1.897-5.657Zm27.368-2.584c1.184-.333 2.498-.326 3.701-.117 1.203.209 2.423.707 3.405 1.434l.114.085c1.072.808 2.351 1.984 2.282 3.415-.057 1.195-1.314 2.004-2.399 1.377-.884-.51-1.3-1.534-2.049-2.215a7.049 7.049 0 0 0-2.119-1.317 7.281 7.281 0 0 0-2.645-.522c-.711-.012-1.426.222-2.124.296.058.118-.494.063-.81-.041-.234-.1-.235-.396-.154-.588.403-.952 1.867-1.546 2.798-1.807Z" clip-rule="evenodd"></path><path fill="#000" fill-rule="evenodd" d="M157 133.093c-.737-.242-1.462-.523-2.189-.793-3.721-1.87-8.214-2.209-12.116-.634-1.915.772-3.7 2.161-5.622 3.07a16.41 16.41 0 0 1-1.382.455c-.285-.099-.57-.205-.853-.31-2.038-.769-3.955-1.717-5.817-2.76a11.99 11.99 0 0 0-.625-.812c1.346-.191 2.665-.509 3.858-.837 3.663-1.004 7.116-2.64 10.766-3.688 3.4-.979 7.088-1.513 10.502-.298 1.621.577 3.047 1.587 4.623 2.268.815.35 1.794.695 2.746.746-.614 1.473-1.392 2.849-2.455 3.994a14.398 14.398 0 0 1-1.436-.401Zm7.927-11.538c-.327.271-1.673 1.146-2.109 1.667a19.608 19.608 0 0 1-.337-.132.937.937 0 0 0-.763-.333c-2.014-.937-3.806-2.26-5.405-3.92-1.137-1.177-2.301-2.409-3.82-3.092-1.789-.807-3.549-.435-5.429-.313-2.001.133-3.976-.435-5.975-.163-1.462.201-2.831.82-4.014 1.693-2.415 1.782-4.08 4.284-6.12 6.442-2.316 2.448-5.164 4.012-8.331 4.811a1.795 1.795 0 0 0-.118-.074c-2.335-2.114-4.443-4.5-6.308-7.043-1.822-2.483-6.624-13.661-7.784-14.642-.481-.408-1.009-.583-1.514-.568-.915.021-1.76.657-2.138 1.659-.643 1.703-.322 3.905-.271 5.687a86.95 86.95 0 0 0 .435 6.531 93.4 93.4 0 0 0 .9 6.408c.188 1.074.398 2.145.628 3.213.072.336.163.636.272.915.112.526.233 1.05.362 1.57.841 3.405 2.167 6.814 4.7 9.327 2.637 2.619 6.22 4.358 9.548 5.913 3.169 1.482 6.49 2.799 9.897 3.83 2.96 1.342 6.129 2.403 9.311 2.961 3.503.615 7.185.653 10.568-.564a18.609 18.609 0 0 0 4.66-2.473c2.022-1.05 3.841-2.494 5.33-4.405 2.668-3.424 3.941-7.579 4.499-11.864.142-1.096.678-5.3.721-5.954l.408-6.34c.064-.997-1.159-1.282-1.803-.747Z" clip-rule="evenodd"></path></svg>